<mxfile host="app.diagrams.net" modified="2023-12-17T13:14:38.765Z" agent="Mozilla/5.0 (Windows NT 10.0; Win64; x64) AppleWebKit/537.36 (KHTML, like Gecko) Chrome/120.0.0.0 Safari/537.36 Edg/120.0.0.0" etag="fTxs1TfUNN8J3PL3LK4m" version="22.1.11" type="github">
  <diagram name="第 1 页" id="HJ_AAIgOyIMPVduGkyvt">
    <mxGraphModel dx="496" dy="255" grid="1" gridSize="10" guides="1" tooltips="1" connect="1" arrows="1" fold="1" page="1" pageScale="1" pageWidth="827" pageHeight="1169" math="0" shadow="0">
      <root>
        <mxCell id="0" />
        <mxCell id="1" parent="0" />
        <mxCell id="V3i5enasuraezQpuRrtJ-1" value=":店鋪管理員" style="shape=umlActor;verticalLabelPosition=bottom;verticalAlign=top;html=1;outlineConnect=0;strokeColor=#CC0000;" vertex="1" parent="1">
          <mxGeometry x="70" y="130" width="30" height="50" as="geometry" />
        </mxCell>
        <mxCell id="V3i5enasuraezQpuRrtJ-2" value="評價控制" style="rounded=0;whiteSpace=wrap;html=1;fillColor=#fff2cc;strokeColor=#f93310;" vertex="1" parent="1">
          <mxGeometry x="50" y="280" width="60" height="40" as="geometry" />
        </mxCell>
        <mxCell id="V3i5enasuraezQpuRrtJ-3" value="評價檔案" style="rounded=0;whiteSpace=wrap;html=1;fillColor=#fff2cc;strokeColor=#f93310;" vertex="1" parent="1">
          <mxGeometry x="435" y="280" width="75" height="40" as="geometry" />
        </mxCell>
        <mxCell id="V3i5enasuraezQpuRrtJ-4" value="" style="endArrow=none;html=1;rounded=0;edgeStyle=orthogonalEdgeStyle;strokeColor=#fd1c1c;" edge="1" parent="1">
          <mxGeometry relative="1" as="geometry">
            <mxPoint x="57.5" y="310" as="sourcePoint" />
            <mxPoint x="102.5" y="310" as="targetPoint" />
          </mxGeometry>
        </mxCell>
        <mxCell id="V3i5enasuraezQpuRrtJ-5" value="" style="endArrow=none;html=1;rounded=0;endSize=8;startSize=8;endFill=0;strokeColor=#f10909;entryX=0;entryY=0.5;entryDx=0;entryDy=0;" edge="1" parent="1" target="V3i5enasuraezQpuRrtJ-12">
          <mxGeometry width="50" height="50" relative="1" as="geometry">
            <mxPoint x="110" y="140" as="sourcePoint" />
            <mxPoint x="305" y="60" as="targetPoint" />
          </mxGeometry>
        </mxCell>
        <mxCell id="V3i5enasuraezQpuRrtJ-6" value="" style="endArrow=none;html=1;rounded=0;endSize=8;startSize=8;endFill=0;strokeColor=#f10909;entryX=0;entryY=0.5;entryDx=0;entryDy=0;exitX=1;exitY=0.5;exitDx=0;exitDy=0;" edge="1" parent="1" source="V3i5enasuraezQpuRrtJ-2" target="V3i5enasuraezQpuRrtJ-3">
          <mxGeometry width="50" height="50" relative="1" as="geometry">
            <mxPoint x="135" y="320" as="sourcePoint" />
            <mxPoint x="590" y="170" as="targetPoint" />
            <Array as="points" />
          </mxGeometry>
        </mxCell>
        <mxCell id="V3i5enasuraezQpuRrtJ-9" value="" style="line;strokeWidth=1;fillColor=none;align=left;verticalAlign=middle;spacingTop=-1;spacingLeft=3;spacingRight=3;rotatable=0;labelPosition=right;points=[];portConstraint=eastwest;strokeColor=#f20707;" vertex="1" parent="1">
          <mxGeometry x="52.5" y="200" width="67.5" height="8" as="geometry" />
        </mxCell>
        <mxCell id="V3i5enasuraezQpuRrtJ-10" value="" style="endArrow=none;html=1;rounded=0;edgeStyle=orthogonalEdgeStyle;strokeColor=#fd1c1c;" edge="1" parent="1">
          <mxGeometry relative="1" as="geometry">
            <mxPoint x="443.75" y="310" as="sourcePoint" />
            <mxPoint x="501.25" y="310.5" as="targetPoint" />
          </mxGeometry>
        </mxCell>
        <mxCell id="V3i5enasuraezQpuRrtJ-11" value="" style="endArrow=none;html=1;rounded=0;endSize=8;startSize=8;endFill=0;strokeColor=#f10909;entryX=0.25;entryY=1;entryDx=0;entryDy=0;exitX=1.006;exitY=0.164;exitDx=0;exitDy=0;exitPerimeter=0;" edge="1" parent="1" source="V3i5enasuraezQpuRrtJ-2" target="V3i5enasuraezQpuRrtJ-12">
          <mxGeometry width="50" height="50" relative="1" as="geometry">
            <mxPoint x="112" y="340" as="sourcePoint" />
            <mxPoint x="617.5" y="110" as="targetPoint" />
          </mxGeometry>
        </mxCell>
        <mxCell id="V3i5enasuraezQpuRrtJ-12" value="店鋪管理" style="rounded=0;whiteSpace=wrap;html=1;fillColor=#fff2cc;strokeColor=#f93310;" vertex="1" parent="1">
          <mxGeometry x="430" y="120" width="80" height="40" as="geometry" />
        </mxCell>
        <mxCell id="V3i5enasuraezQpuRrtJ-13" value="" style="endArrow=none;html=1;rounded=0;edgeStyle=orthogonalEdgeStyle;strokeColor=#fd1c1c;" edge="1" parent="1">
          <mxGeometry relative="1" as="geometry">
            <mxPoint x="435" y="149.66" as="sourcePoint" />
            <mxPoint x="505" y="149.66" as="targetPoint" />
            <Array as="points">
              <mxPoint x="490" y="149.66" />
              <mxPoint x="490" y="149.66" />
            </Array>
          </mxGeometry>
        </mxCell>
        <mxCell id="V3i5enasuraezQpuRrtJ-14" value="4:結果顯示" style="endArrow=open;endSize=6;html=1;rounded=0;labelBackgroundColor=none;strokeColor=#f31616;dashed=1;" edge="1" parent="1">
          <mxGeometry x="-0.1429" y="10" width="160" relative="1" as="geometry">
            <mxPoint x="460" y="238" as="sourcePoint" />
            <mxPoint x="460" y="208" as="targetPoint" />
            <mxPoint as="offset" />
          </mxGeometry>
        </mxCell>
        <mxCell id="V3i5enasuraezQpuRrtJ-15" value="1:登錄" style="endArrow=openThin;endSize=6;html=1;rounded=0;labelBackgroundColor=none;strokeColor=#f31616;endFill=0;startArrow=none;startFill=0;" edge="1" parent="1">
          <mxGeometry x="0.4" y="10" width="160" relative="1" as="geometry">
            <mxPoint x="310" y="130" as="sourcePoint" />
            <mxPoint x="310" y="130" as="targetPoint" />
            <mxPoint as="offset" />
            <Array as="points">
              <mxPoint x="260" y="130" />
            </Array>
          </mxGeometry>
        </mxCell>
        <mxCell id="V3i5enasuraezQpuRrtJ-16" value="2:篩選評價" style="endArrow=openThin;endSize=6;html=1;rounded=0;labelBackgroundColor=none;strokeColor=#f31616;endFill=0;startArrow=none;startFill=0;" edge="1" parent="1">
          <mxGeometry x="-0.0775" y="14" width="160" relative="1" as="geometry">
            <mxPoint x="290" y="230" as="sourcePoint" />
            <mxPoint x="240" y="250" as="targetPoint" />
            <mxPoint as="offset" />
            <Array as="points" />
          </mxGeometry>
        </mxCell>
        <mxCell id="V3i5enasuraezQpuRrtJ-17" value="3:生成評價檔案" style="endArrow=openThin;endSize=6;html=1;rounded=0;labelBackgroundColor=none;strokeColor=#f31616;endFill=0;startArrow=none;startFill=0;" edge="1" parent="1">
          <mxGeometry y="10" width="160" relative="1" as="geometry">
            <mxPoint x="270" y="290" as="sourcePoint" />
            <mxPoint x="310" y="290" as="targetPoint" />
            <mxPoint as="offset" />
            <Array as="points">
              <mxPoint x="300" y="290" />
            </Array>
          </mxGeometry>
        </mxCell>
        <mxCell id="V3i5enasuraezQpuRrtJ-18" value="5:退出" style="endArrow=none;endSize=6;html=1;rounded=0;labelBackgroundColor=none;strokeColor=#f31616;endFill=0;startArrow=openThin;startFill=0;dashed=1;" edge="1" parent="1">
          <mxGeometry x="-0.2" y="-10" width="160" relative="1" as="geometry">
            <mxPoint x="260" y="149.71" as="sourcePoint" />
            <mxPoint x="310" y="149.71" as="targetPoint" />
            <mxPoint as="offset" />
            <Array as="points" />
          </mxGeometry>
        </mxCell>
        <mxCell id="V3i5enasuraezQpuRrtJ-20" style="edgeStyle=orthogonalEdgeStyle;rounded=0;orthogonalLoop=1;jettySize=auto;html=1;endArrow=none;endFill=0;strokeColor=#f40b0b;" edge="1" parent="1" source="V3i5enasuraezQpuRrtJ-12">
          <mxGeometry relative="1" as="geometry">
            <mxPoint x="470" y="280" as="targetPoint" />
          </mxGeometry>
        </mxCell>
      </root>
    </mxGraphModel>
  </diagram>
</mxfile>
